<svg xmlns="http://www.w3.org/2000/svg" viewBox="0 0 137.8 137.8"><defs><style>.cls-1{fill:#e84627;}</style></defs><title>git</title><g id="Capa_2" data-name="Capa 2"><g id="Capa_1-2" data-name="Capa 1"><path class="cls-1" d="M135.2,62.76,75,2.6a8.87,8.87,0,0,0-12.55,0L50,15.09,65.84,30.94A10.55,10.55,0,0,1,79.19,44.38L94.46,59.65a10.56,10.56,0,1,1-6.32,6L73.89,51.36V88.85a10.37,10.37,0,0,1,2.79,2,10.54,10.54,0,1,1-11.47-2.31V50.71a10.45,10.45,0,0,1-3.46-2.31,10.56,10.56,0,0,1-2.27-11.54L43.86,21.23,2.6,62.48A8.88,8.88,0,0,0,2.6,75L62.77,135.2a8.87,8.87,0,0,0,12.55,0L135.2,75.32A8.88,8.88,0,0,0,135.2,62.76Z"/></g></g></svg>