<svg id="Capa_1" data-name="Capa 1" xmlns="http://www.w3.org/2000/svg" viewBox="0 0 242.18 278.91"><defs><style>.cls-1{fill:#fff;}</style></defs><title>octocat_github</title><path class="cls-1" d="M258.24,310.86c0-5.81.22-24.78.22-48.39,0-16.45-5.75-27.18-12-32.65,39.27-4.45,80.51-19.34,80.51-87.07a68.16,68.16,0,0,0-18.13-47.33c1.83-4.42,7.87-22.36-1.74-46.64,0,0-14.77-4.7-48.42,18.13a167.11,167.11,0,0,0-88.31,0c-33.68-22.79-48.48-18.07-48.48-18.07-9.58,24.29-3.54,42.23-1.71,46.64A68.19,68.19,0,0,0,102,142.82c0,67.48,41.17,82.62,80.32,87.07a37.56,37.56,0,0,0-11.19,23.57c-10.08,4.51-35.57,12.28-51.31-14.65,0,0-9.33-16.92-27-18.16,0,0-17.2-.25-1.21,10.7,0,0,11.57,5.41,19.59,25.81,0,0,10.32,31.47,59.39,20.8.22,14.71.22,28.14.22,32.81s27.7,16.53,46.1,16.53S258.24,314.43,258.24,310.86ZM105,228.8c-.37.87-1.77,1.15-3.11.53s-2-1.77-1.59-2.64,1.77-1.15,3.11-.56S105.43,227.93,105,228.8Zm7.15,8.09c-.84.78-2.49.4-3.61-.81s-1.37-2.89-.5-3.67,2.46-.4,3.61.81S113,236,112.15,236.88Zm6.93,10c-1.06.78-2.83,0-3.92-1.49s-1.09-3.45,0-4.23,2.83,0,3.92,1.49S120.2,246.21,119.08,246.89Zm9.55,9.83c-1,1.06-3.11.78-4.54-.68a3.39,3.39,0,0,1-1-4.51c1-1.06,3.11-.75,4.57.68S129.66,255.54,128.63,256.72Zm8.71,7.12c-2-.59-3.3-2.24-2.89-3.61s2.43-2.05,4.42-1.43,3.3,2.21,2.89,3.61S139.36,264.43,137.34,263.84Zm15.11,2.3c-2.08,0-3.82-1.12-3.86-2.55s1.68-2.64,3.76-2.71,3.82,1.15,3.82,2.58S154.53,266.14,152.45,266.14Zm13.87-1.83c-2.08.25-3.95-.5-4.2-1.9s1.24-2.89,3.11-3.3,4.1.62,4.38,2.08S168.4,264.06,166.32,264.31Z" transform="translate(-84.82 -48.38)"/></svg>